<?xml version="1.0" encoding="utf-8"?>
<!DOCTYPE svg PUBLIC "-//W3C//DTD SVG 1.1//EN" "http://www.w3.org/Graphics/SVG/1.1/DTD/svg11.dtd">
<svg style="width:308px;height:308px;" version="1.1" id="图形" xmlns="http://www.w3.org/2000/svg" xmlns:xlink="http://www.w3.org/1999/xlink" x="0px" y="0px" width="1024px" height="1024px" viewBox="0 0 1024 1024" enable-background="new 0 0 1024 1024" xml:space="preserve">
  <path class="svgpath" data-index="path_0" fill="#ccc" d="M243.523705 648.420239C131.876014 536.795971 131.876014 355.166204 243.523705 243.541934 297.61283 189.426216 369.504161 159.682363 446.002451 159.682363 522.443863 159.682363 594.335196 189.426216 648.42432 243.541934 760.072013 355.166204 760.072013 536.795971 648.42432 648.420239 594.335196 702.479411 522.443863 732.279808 445.945575 732.279808 369.504161 732.279808 297.61283 702.479411 243.523705 648.420239L243.523705 648.420239ZM921.6 881.112172 707.120404 666.628454C821.213768 531.650171 816.151798 330.285414 688.920069 203.054104 621.806331 135.932519 533.875953 102.4 446.002451 102.4 358.072074 102.4 270.141697 135.932519 203.027956 203.054104 68.857348 337.184179 68.857348 554.721449 203.027956 688.908068 270.141697 755.973105 358.072074 789.562173 445.945575 789.562173 524.83266 789.562173 602.809728 761.062359 666.624655 707.116283L881.161129 921.6 921.6 881.112172Z" />

</svg>
